<svg width="70" height="70" viewBox="0 0 70 70" fill="none" xmlns="http://www.w3.org/2000/svg">
<rect width="70" height="70" rx="18" fill="#F6F6F6"/>
<circle cx="50" cy="20.3301" r="8" fill="#FD9300"/>
<g clip-path="url(#clip0_475_159)">
<mask id="mask0_475_159" style="mask-type:luminance" maskUnits="userSpaceOnUse" x="13" y="14" width="42" height="41">
<path d="M13.5 14H54.5V55H13.5V14Z" fill="white"/>
</mask>
<g mask="url(#mask0_475_159)">
<path d="M48.0773 27.6298C47.1847 24.6634 44.4644 22.4883 41.207 22.4883C39.1182 22.4883 37.2525 23.3909 35.9362 24.8109C34.9219 22.059 32.2995 20.0859 29.1953 20.0859C25.2149 20.0859 21.9883 23.3126 21.9883 27.293C18.0079 27.293 14.7012 30.5196 14.7012 34.5C14.7012 37.7573 16.9563 40.4777 19.9227 41.3702C20.8153 44.3366 23.5356 46.5117 26.793 46.5117C28.8819 46.5117 30.7475 45.6091 32.0638 44.1891C33.0781 46.941 35.7006 48.9141 38.8047 48.9141C42.785 48.9141 46.0117 45.6874 46.0117 41.707C49.9921 41.707 53.2988 38.4804 53.2988 34.5C53.2988 31.2427 51.0437 28.5223 48.0773 27.6298Z" stroke="#00A4B2" stroke-width="2" stroke-miterlimit="10" stroke-linecap="round" stroke-linejoin="round"/>
<path d="M53.2988 17.6035C53.2988 18.9303 52.2232 20.0059 50.8965 20.0059C49.5697 20.0059 48.4941 18.9303 48.4941 17.6035C48.4941 16.2768 49.5697 15.2012 50.8965 15.2012C52.2232 15.2012 53.2988 16.2768 53.2988 17.6035Z" stroke="#00A4B2" stroke-width="2" stroke-miterlimit="10" stroke-linecap="round" stroke-linejoin="round"/>
<path d="M19.5059 51.3965C19.5059 52.7232 18.4303 53.7988 17.1035 53.7988C15.7768 53.7988 14.7012 52.7232 14.7012 51.3965C14.7012 50.0697 15.7768 48.9941 17.1035 48.9941C18.4303 48.9941 19.5059 50.0697 19.5059 51.3965Z" stroke="#00A4B2" stroke-width="2" stroke-miterlimit="10" stroke-linecap="round" stroke-linejoin="round"/>
<path d="M35.2012 34.5C35.2012 35.1634 34.6634 35.7012 34 35.7012C33.3366 35.7012 32.7988 35.1634 32.7988 34.5C32.7988 33.8366 33.3366 33.2988 34 33.2988C34.6634 33.2988 35.2012 33.8366 35.2012 34.5Z" fill="#00A4B2"/>
<path d="M52.0176 46.5117C52.0176 47.1751 51.4798 47.7129 50.8164 47.7129C50.153 47.7129 49.6152 47.1751 49.6152 46.5117C49.6152 45.8484 50.153 45.3105 50.8164 45.3105C51.4798 45.3105 52.0176 45.8484 52.0176 46.5117Z" fill="#00A4B2"/>
<path d="M18.3848 22.4883C18.3848 23.1516 17.847 23.6895 17.1836 23.6895C16.5202 23.6895 15.9824 23.1516 15.9824 22.4883C15.9824 21.8249 16.5202 21.2871 17.1836 21.2871C17.847 21.2871 18.3848 21.8249 18.3848 22.4883Z" fill="#00A4B2"/>
<path d="M30.3965 29.6953C30.3965 30.3587 29.8587 30.8965 29.1953 30.8965C28.5319 30.8965 27.9941 30.3587 27.9941 29.6953C27.9941 29.0319 28.5319 28.4941 29.1953 28.4941C29.8587 28.4941 30.3965 29.0319 30.3965 29.6953Z" fill="#00A4B2"/>
<path d="M40.0059 39.3047C40.0059 39.9681 39.4681 40.5059 38.8047 40.5059C38.1413 40.5059 37.6035 39.9681 37.6035 39.3047C37.6035 38.6413 38.1413 38.1035 38.8047 38.1035C39.4681 38.1035 40.0059 38.6413 40.0059 39.3047Z" fill="#00A4B2"/>
<path d="M42.4082 29.6953C42.4082 30.3587 41.8704 30.8965 41.207 30.8965C40.5437 30.8965 40.0059 30.3587 40.0059 29.6953C40.0059 29.0319 40.5437 28.4941 41.207 28.4941C41.8704 28.4941 42.4082 29.0319 42.4082 29.6953Z" fill="#00A4B2"/>
<path d="M27.9941 39.3047C27.9941 39.9681 27.4563 40.5059 26.793 40.5059C26.1296 40.5059 25.5918 39.9681 25.5918 39.3047C25.5918 38.6413 26.1296 38.1035 26.793 38.1035C27.4563 38.1035 27.9941 38.6413 27.9941 39.3047Z" fill="#00A4B2"/>
<path d="M23.1895 34.5C23.1895 35.1634 22.6516 35.7012 21.9883 35.7012C21.3249 35.7012 20.7871 35.1634 20.7871 34.5C20.7871 33.8366 21.3249 33.2988 21.9883 33.2988C22.6516 33.2988 23.1895 33.8366 23.1895 34.5Z" fill="#00A4B2"/>
<path d="M47.2129 34.5C47.2129 35.1634 46.6751 35.7012 46.0117 35.7012C45.3484 35.7012 44.8105 35.1634 44.8105 34.5C44.8105 33.8366 45.3484 33.2988 46.0117 33.2988C46.6751 33.2988 47.2129 33.8366 47.2129 34.5Z" fill="#00A4B2"/>
<path d="M30.3965 51.3164C30.3965 51.9798 29.8587 52.5176 29.1953 52.5176C28.5319 52.5176 27.9941 51.9798 27.9941 51.3164C27.9941 50.653 28.5319 50.1152 29.1953 50.1152C29.8587 50.1152 30.3965 50.653 30.3965 51.3164Z" fill="#00A4B2"/>
<path d="M37.6035 17.6836C37.6035 18.347 37.0657 18.8848 36.4023 18.8848C35.739 18.8848 35.2012 18.347 35.2012 17.6836C35.2012 17.0202 35.739 16.4824 36.4023 16.4824C37.0657 16.4824 37.6035 17.0202 37.6035 17.6836Z" fill="#00A4B2"/>
</g>
</g>
<defs>
<clipPath id="clip0_475_159">
<rect width="41" height="41" fill="white" transform="translate(13.5 14)"/>
</clipPath>
</defs>
</svg>
