<svg width="161" height="52" viewBox="0 0 161 52" fill="none" xmlns="http://www.w3.org/2000/svg">
<g id="logo.svg">
<path id="Vector" d="M137.249 36.2096C138.575 36.2096 139.847 35.6828 140.784 34.7452C141.722 33.8075 142.249 32.5358 142.249 31.2098C142.249 29.8837 141.722 28.612 140.784 27.6744C139.847 26.7367 138.575 26.21 137.249 26.21C135.923 26.21 134.651 26.7367 133.713 27.6744C132.776 28.612 132.249 29.8837 132.249 31.2098C132.249 32.5358 132.776 33.8075 133.713 34.7452C134.651 35.6828 135.923 36.2096 137.249 36.2096Z" fill="#91C453"/>
<path id="Vector_2" d="M147.208 2.1709C146.545 2.17232 145.889 2.30567 145.278 2.56318C144.667 2.82069 144.113 3.19722 143.649 3.67084L133.449 13.9104C132.616 14.6239 131.572 15.0437 130.477 15.1051C129.382 15.1665 128.297 14.8662 127.389 14.2504L130.269 17.1303C130.479 17.3403 132.949 19.8402 133.849 20.7102C134.794 21.6157 136.056 22.1145 137.365 22.0995C138.674 22.0846 139.925 21.557 140.849 20.6302L150.738 10.7406C151.441 10.0472 151.924 9.1611 152.124 8.19406C152.324 7.22702 152.233 6.22235 151.863 5.30677C151.493 4.3912 150.86 3.60572 150.044 3.04941C149.228 2.49311 148.266 2.1909 147.278 2.1809L147.208 2.1709Z" fill="#91C554"/>
<path id="Vector_3" d="M127.349 14.2301C128.251 14.8314 129.324 15.1233 130.406 15.062C131.488 15.0007 132.521 14.5894 133.349 13.8901L137.199 10.0502L130.829 3.68046C129.944 2.75264 128.731 2.20726 127.449 2.16052C126.788 2.15258 126.131 2.27604 125.518 2.52374C124.904 2.77145 124.346 3.13848 123.875 3.60354C123.405 4.06861 123.031 4.62247 122.776 5.23302C122.521 5.84357 122.39 6.49866 122.39 7.16032C122.389 7.82235 122.521 8.47774 122.779 9.08756C123.037 9.69738 123.414 10.2492 123.89 10.7102L127.349 14.2301Z" fill="url(#paint0_linear_2440_6120)"/>
<path id="Vector_4" d="M24.9329 23.0697C23.5073 22.0709 21.7781 21.6006 20.0431 21.7398C17.1668 21.7569 14.2982 22.0381 11.4734 22.5797L11.8934 25.5796C14.8866 25.3463 17.2765 25.2296 19.0631 25.2296C19.9231 25.1461 20.7888 25.3164 21.553 25.7196C21.8036 25.9837 21.9927 26.3 22.1068 26.6457C22.2209 26.9915 22.2572 27.3581 22.213 27.7195V28.7195H15.7732C14.4334 28.6392 13.1085 29.036 12.0334 29.8395C11.5833 30.2346 11.2294 30.7275 10.9989 31.2803C10.7684 31.8332 10.6673 32.4314 10.7034 33.0293V34.7993C10.6669 35.4823 10.7825 36.1649 11.0419 36.7978C11.3013 37.4307 11.698 37.9982 12.2034 38.4591C13.3039 39.364 14.6998 39.8305 16.1232 39.7691C17.3683 39.7812 18.6008 39.5187 19.7329 39.0002C20.865 38.4817 21.8689 37.7199 22.673 36.7692L23.1229 39.3891H26.4528V27.7295C26.4528 25.5096 25.9462 23.9563 24.9329 23.0697ZM22.213 34.3093C20.8307 35.5387 19.062 36.2462 17.2132 36.3092C15.7232 36.3092 14.9733 35.6092 14.9733 34.2093V33.5393C14.9434 33.0392 15.0884 32.5443 15.3832 32.1394C15.5681 31.9578 15.7893 31.8176 16.0324 31.728C16.2754 31.6383 16.5348 31.6013 16.7932 31.6194H22.253L22.213 34.3093ZM41.8822 21.7398H42.7222L42.2722 25.7396H41.0423C39.0798 25.9337 37.1635 26.4541 35.3725 27.2796V39.3791H31.1026V22.2297H34.4525L34.8325 24.7497C37.2624 22.7497 39.6223 21.7398 41.8822 21.7398ZM52.7718 21.7398C49.8719 21.7398 47.862 22.1598 46.712 22.9997C45.5621 23.8397 45.0021 25.2796 45.0021 27.3096C45.0021 29.6228 45.8054 31.1627 47.412 31.9294C47.0008 32.2098 46.6596 32.5811 46.4151 33.0147C46.1706 33.4482 46.0293 33.9323 46.0021 34.4293C45.9252 34.9392 45.9763 35.4603 46.1509 35.9455C46.3254 36.4308 46.6179 36.8651 47.002 37.2092C46.2068 37.5947 45.5015 38.1432 44.9321 38.8191C44.4737 39.4516 44.2381 40.2183 44.2621 40.999C44.2621 42.9989 44.8821 44.3589 46.1221 45.1189C47.362 45.8788 49.6319 46.2488 52.9418 46.2488C56.2517 46.2488 58.4716 45.8588 59.7215 45.0789C60.9715 44.2989 61.5915 42.859 61.5915 40.759C61.6652 39.4967 61.2579 38.2532 60.4515 37.2792C59.4496 36.3716 58.1705 35.8289 56.8216 35.7392L50.5619 34.8693C50.3112 34.8515 50.0716 34.7591 49.8738 34.6041C49.676 34.4491 49.5291 34.2385 49.4519 33.9993C49.3658 33.7661 49.3363 33.5157 49.3659 33.2688C49.3954 33.022 49.4832 32.7857 49.6219 32.5794C50.6623 32.7555 51.7167 32.8359 52.7718 32.8193C55.6384 32.8193 57.6383 32.396 58.7716 31.5494C59.9215 30.6894 60.4915 29.2795 60.4915 27.2896C60.5175 26.3583 60.3612 25.431 60.0315 24.5597L62.2714 24.3197L62.5214 22.2497H57.0716C55.6672 21.8907 54.2213 21.7192 52.7718 21.7398ZM49.6919 38.1191L54.5917 38.7191C55.4074 38.7593 56.2111 38.9315 56.9716 39.2291C57.3216 39.4191 57.4916 39.8691 57.4916 40.569C57.5465 40.9303 57.4932 41.2998 57.3384 41.6308C57.1835 41.9618 56.9342 42.2395 56.6217 42.429C55.4208 42.7929 54.1637 42.9352 52.9118 42.849C51.668 42.9302 50.4195 42.7948 49.2219 42.449C48.642 42.179 48.362 41.539 48.362 40.539C48.4033 40.0654 48.5429 39.6056 48.7719 39.1889C49.0008 38.7722 49.3142 38.4079 49.6919 38.1191ZM55.6917 29.2695C54.7606 29.7234 53.724 29.9169 52.6918 29.8295C51.6599 29.9125 50.6244 29.7192 49.6919 29.2695C49.3925 29.0358 49.1581 28.7292 49.011 28.3791C48.864 28.0289 48.8092 27.6469 48.852 27.2696C48.8042 26.8918 48.8567 26.5081 49.0041 26.1571C49.1515 25.8061 49.3888 25.5 49.6919 25.2696C50.6257 24.8243 51.6608 24.6345 52.6918 24.7197C53.723 24.6301 54.7593 24.8201 55.6917 25.2696C55.9889 25.5042 56.2206 25.8116 56.3642 26.1619C56.5079 26.5123 56.5587 26.8938 56.5117 27.2696C56.5576 27.6414 56.5104 28.0189 56.3743 28.368C56.2381 28.7171 56.0173 29.0269 55.7317 29.2695H55.6917ZM80.5907 27.6895C80.6507 26.8525 80.5138 26.0131 80.1908 25.2386C79.8678 24.4641 79.3677 23.7761 78.7308 23.2297C77.5008 22.2297 75.5109 21.7398 72.781 21.7398C69.7812 21.7398 67.7012 22.4197 66.4113 23.7397C65.1213 25.0596 64.4914 27.4195 64.4914 30.7394C64.4914 34.0593 65.1413 36.3292 66.4913 37.7392C67.8412 39.1491 70.0011 39.7991 73.101 39.7991C75.5126 39.9241 77.9231 39.532 80.1707 38.6491L79.7908 35.9192C77.7474 36.1784 75.6907 36.3187 73.631 36.3392C72.4706 36.4333 71.3091 36.1717 70.3011 35.5892C69.9035 35.1971 69.5874 34.7302 69.3712 34.2153C69.1549 33.7004 69.0428 33.1478 69.0412 32.5893H76.0409C79.1008 32.5893 80.6307 30.9561 80.6307 27.6895H80.5907ZM74.851 29.6195H68.9712C68.9712 27.8495 69.3312 26.6196 69.9011 26.0296C70.328 25.6729 70.8228 25.4065 71.3557 25.2466C71.8885 25.0868 72.4483 25.0368 73.001 25.0996C73.9237 25.016 74.8503 25.211 75.6609 25.6596C75.9327 25.911 76.1407 26.2235 76.2677 26.5713C76.3946 26.9191 76.4369 27.2922 76.3909 27.6595C76.3909 28.9995 75.8809 29.6195 74.851 29.6195ZM99.25 22.9997C99.6716 23.4747 99.9948 24.0286 100.201 24.6294C100.407 25.2302 100.491 25.8658 100.45 26.4996V39.3791H96.2001V27.7995C96.2648 27.1297 96.1328 26.4555 95.8201 25.8596C95.6356 25.6694 95.4097 25.5244 95.1599 25.436C94.9101 25.3475 94.6433 25.318 94.3802 25.3496C93.5464 25.3566 92.7216 25.5229 91.9503 25.8396C90.8475 26.3012 89.7783 26.8391 88.7504 27.4495V39.3791H84.4506V22.2297H88.0504L88.3304 24.7497C90.9903 22.7497 93.4602 21.7498 95.7502 21.7498C96.3876 21.7116 97.0263 21.8026 97.6277 22.0174C98.2291 22.2322 98.7809 22.5663 99.25 22.9997ZM121.329 39.4091H116.849L112.549 31.9994H112.06L107.75 39.3491H103.27L108.7 30.5294L103.7 22.1998H108.15L112.02 28.9995H112.579L116.449 22.2297H120.889L115.889 30.5594L121.329 39.4091Z" fill="#676767"/>
</g>
<defs>
<linearGradient id="paint0_linear_2440_6120" x1="45.0206" y1="8.20528" x2="46.0664" y2="8.20528" gradientUnits="userSpaceOnUse">
<stop stop-color="#91C453"/>
<stop offset="0.18" stop-color="#7CB850"/>
<stop offset="0.55" stop-color="#479947"/>
<stop offset="1" stop-color="#006F3C"/>
</linearGradient>
</defs>
</svg>
