<svg width="70" height="70" viewBox="0 0 70 70" fill="none" xmlns="http://www.w3.org/2000/svg">
<rect width="70" height="70" rx="18" fill="#F6F6F6"/>
<circle cx="50" cy="20.3301" r="8" fill="#FD9300"/>
<g clip-path="url(#clip0_475_224)">
<mask id="mask0_475_224" style="mask-type:luminance" maskUnits="userSpaceOnUse" x="16" y="16" width="39" height="38">
<path d="M16.5 16H54.5V54H16.5V16Z" fill="white"/>
</mask>
<g mask="url(#mask0_475_224)">
<path d="M33.214 51.4555C30.6055 54.0641 25.3188 53.0067 21.4059 49.0938C17.493 45.181 16.4357 39.8944 19.0443 37.2857C21.6528 34.6772 26.9395 35.7345 30.8524 39.6474C34.7653 43.5602 35.8226 48.8469 33.214 51.4555Z" stroke="#00A4B2" stroke-width="2" stroke-miterlimit="10"/>
<path d="M29.92 46.6947C28.8871 46.4197 27.5137 45.7551 26.1295 44.3708C24.7453 42.9867 24.0806 41.6133 23.8057 40.5803" stroke="#00A4B2" stroke-width="2" stroke-miterlimit="10"/>
<path d="M37.7855 42.5495C40.394 45.1581 45.6807 44.1007 49.5936 40.1878C53.5065 36.275 54.5638 30.9884 51.9552 28.3797C49.3467 25.7711 44.06 26.8285 40.1471 30.7414C36.2342 34.6542 35.1769 39.9409 37.7855 42.5495Z" stroke="#00A4B2" stroke-width="2" stroke-miterlimit="10"/>
<path d="M41.0801 37.7885C42.1131 37.5135 43.4864 36.8488 44.8706 35.4646C46.2548 34.0804 46.9195 32.7071 47.1944 31.6741" stroke="#00A4B2" stroke-width="2" stroke-miterlimit="10"/>
<path d="M33.1992 22.6797C33.1992 25.7539 29.7102 28.2461 25.4062 28.2461C21.1023 28.2461 17.6133 25.7539 17.6133 22.6797C17.6133 19.6055 21.1023 17.1133 25.4062 17.1133C29.7102 17.1133 33.1992 19.6055 33.1992 22.6797Z" stroke="#00A4B2" stroke-width="2" stroke-miterlimit="10"/>
<path d="M28.6884 21.5664C28.3634 21.9731 27.2175 22.6797 25.4062 22.6797C23.595 22.6797 22.4491 21.9731 22.124 21.5664" stroke="#00A4B2" stroke-width="2" stroke-miterlimit="10"/>
<path d="M51.0859 50.6602C51.0859 51.8898 49.5907 52.8867 47.7461 52.8867C45.9015 52.8867 44.4062 51.8898 44.4062 50.6602C44.4062 49.4305 45.9015 48.4336 47.7461 48.4336C49.5907 48.4336 51.0859 49.4305 51.0859 50.6602Z" stroke="#00A4B2" stroke-width="2" stroke-miterlimit="10"/>
<path d="M42.9268 22.3135C42.0572 23.1831 40.2951 22.8306 38.9908 21.5264C37.6865 20.222 37.334 18.4598 38.2035 17.5902C39.0731 16.7208 40.8353 17.0732 42.1396 18.3775C43.4439 19.6818 43.7963 21.444 42.9268 22.3135Z" stroke="#00A4B2" stroke-width="2" stroke-miterlimit="10"/>
</g>
</g>
<defs>
<clipPath id="clip0_475_224">
<rect width="38" height="38" fill="white" transform="translate(16.5 16)"/>
</clipPath>
</defs>
</svg>
