<svg width="70" height="70" viewBox="0 0 70 70" fill="none" xmlns="http://www.w3.org/2000/svg">
<rect width="70" height="70" rx="18" fill="#F6F6F6"/>
<circle cx="50" cy="20.3301" r="8" fill="#FD9300"/>
<g clip-path="url(#clip0_475_118)">
<path d="M34.2448 29.9791C30.0854 29.9791 26.7135 26.6073 26.7135 22.4479V16.1719H31.7344V22.4479C31.7344 23.1137 31.9988 23.7523 32.4697 24.223C32.9405 24.6938 33.579 24.9583 34.2448 24.9583C34.9797 24.9583 35.59 24.9583 35.59 24.9583C37.327 21.958 40.5727 19.9375 44.2865 19.9375C49.8286 19.9375 54.3281 24.437 54.3281 29.9791C54.3281 41.7562 44.7666 51.3177 32.9896 51.3177C29.713 51.3177 26.9223 49.2205 25.8877 46.2968H24.2031C22.8166 46.2968 21.6927 47.4208 21.6927 48.8072C21.6927 50.9977 21.6927 53.828 21.6927 53.828H16.6719V48.8072C16.6719 44.6478 20.0437 41.2759 24.2031 41.2759C25.2406 41.2759 25.9593 41.2759 25.9593 41.2759C26.6472 39.5892 28.0116 38.0811 29.8516 36.8827C32.5653 35.1152 34.2448 32.6739 34.2448 29.9791Z" stroke="#00A4B2" stroke-width="2" stroke-miterlimit="10" stroke-linecap="round" stroke-linejoin="round"/>
<path d="M53.1848 36.8829C49.9653 33.6634 44.7376 33.6634 41.5181 36.8829C38.2987 40.1023 33.071 40.1023 29.8516 36.8829" stroke="#00A4B2" stroke-width="2" stroke-miterlimit="10" stroke-linecap="round" stroke-linejoin="round"/>
</g>
<defs>
<clipPath id="clip0_475_118">
<rect width="40" height="40" fill="white" transform="translate(15.5 15)"/>
</clipPath>
</defs>
</svg>
