<svg width="572" height="214" viewBox="0 0 572 214" fill="none" xmlns="http://www.w3.org/2000/svg">
<g clip-path="url(#clip0_299_2512)">
<path d="M241.649 184.485C216.92 180.512 200.582 202.836 200.189 225.37C200.189 226.781 202.228 226.729 202.359 225.37C204.398 202.679 227.402 175.309 251.583 193.347C265.908 204.039 264.105 223.801 263.817 239.617C263.765 242.832 268.496 242.754 268.758 239.617C270.588 218.495 267.425 188.589 241.649 184.459V184.485Z" fill="#FD9300"/>
<path d="M233.206 151.547C190.518 155.494 173.814 200.588 173.082 237.552C173.029 240.192 176.898 240.113 177.133 237.552C180.009 204.039 193.916 160.487 234.017 157.56C277.254 154.396 287.894 202.209 296.442 234.284C297.357 237.682 302.115 236.192 301.592 232.872C296.076 197.608 277.542 147.469 233.206 151.547Z" fill="#FD9300"/>
<path d="M336.752 221.239C332.595 203.28 326.557 185.609 317.067 169.741C302.428 145.221 278.3 124.543 249.388 120.073C179.957 109.329 139.334 183.596 130.106 241.237C129.87 242.754 132.04 243.459 132.485 241.891C147.15 189.974 175.722 121.641 241.389 125.17C269.647 126.687 294.037 145.273 309.173 168.251C326.374 194.34 328.779 223.775 338.66 252.19C337.458 248.766 332.151 250.125 333.144 253.707C333.301 254.229 333.432 254.726 333.589 255.249C333.955 256.504 335.105 257.34 336.386 257.393C337.039 257.393 337.667 257.419 338.32 257.445C339.287 257.445 340.464 256.87 340.882 255.981C345.3 246.518 338.974 230.912 336.752 221.292V221.239Z" fill="#FD9300"/>
<path d="M337.378 123.864C313.25 96.4682 275.58 83.7374 239.688 85.2797C156.429 88.8872 103.44 168.095 99.4408 245.604C99.3363 247.852 102.735 247.799 102.918 245.604C109.27 170.578 160.141 93.2528 241.858 91.0569C275.554 90.1681 310.609 102.271 333.195 128.021C361.663 160.462 367.179 209.686 374.002 250.57C374.498 253.603 379.701 252.923 379.413 249.838C375.309 208.222 365.924 156.279 337.352 123.864H337.378Z" fill="#FD9300"/>
<path d="M360.015 104.18C328.855 67.1379 282.794 53.4922 235.478 58.7988C140.69 69.4383 68.6452 150.581 69.2726 245.813C69.2726 247.983 72.5664 247.983 72.6448 245.813C75.2851 152.254 146.206 72.1047 240.707 64.2101C289.486 60.1321 334.057 77.2284 362.864 117.486C390.182 155.652 398.547 202.915 405.187 248.375C405.736 252.139 411.435 250.544 410.886 246.806C403.54 196.615 393.606 144.124 360.015 104.18Z" fill="#FD9300"/>
<path d="M343.312 25.2328C254.511 -6.76397 144.064 38.1727 86.6059 108.362C55.0535 146.894 35.8136 194.027 32.2846 243.695C32.1539 245.655 35.0555 245.577 35.2908 243.695C48.4398 127.576 140.901 36.1337 257.073 23.2461C316.831 16.6063 372.721 33.8856 409.972 82.6127C446.413 130.242 454.674 191.491 450.544 249.812C450.282 253.602 456.164 253.576 456.451 249.812C462.647 162.291 434.702 58.1446 343.339 25.2328H343.312Z" fill="#FD9300"/>
</g>
<defs>
<clipPath id="clip0_299_2512">
<rect width="572" height="214" fill="white"/>
</clipPath>
</defs>
</svg>
