<svg width="252" height="317" viewBox="0 0 252 317" fill="none" xmlns="http://www.w3.org/2000/svg">
<g clip-path="url(#clip0_299_2677)">
<path d="M248.257 2.94484C247.965 2.83872 247.647 2.83872 247.408 3.13055C185.078 79.6975 140.242 174.146 116.722 272.548C110.325 221.211 119.191 168.867 141.198 121.961C164.824 71.7384 201.483 33.9324 246.426 2.30811C247.726 1.40607 246.611 -0.557185 245.178 0.159138C146.003 51.2038 95.7512 178.046 113.431 284.539C113.484 284.884 113.617 285.15 113.802 285.388C106.927 316.721 102.202 348.425 99.7862 379.996C97.6891 355.217 94.2912 330.437 89.3271 305.976C89.3271 305.976 89.3271 305.976 89.3271 305.95C112.741 230.629 78.0716 148.809 5.57486 116.283C4.0352 115.593 2.65482 117.822 4.22102 118.591C33.7666 133.316 58.9055 156.052 74.7269 185.183C83.8056 201.924 89.4067 220.203 91.5835 239.093C92.6453 248.299 93.017 257.558 92.3799 266.844C91.8755 274.352 92.0613 290.297 87.4158 296.664C87.4158 296.69 87.3627 296.717 87.3627 296.743C73.0279 231.664 47.0926 169.636 3.76974 118.485C3.55738 118.22 3.26537 118.246 2.97337 118.352C1.51334 118.14 -0.318322 119.334 0.0267747 121.297C6.26506 158.758 9.26474 199.032 24.7675 234.052C37.3237 262.413 57.3128 286.29 82.2128 304.543C90.7075 347.204 94.7956 391.059 96.5741 434.702C96.6272 435.869 97.2378 436.639 98.0076 437.063C98.4854 439.769 102.759 439.637 102.865 436.639C104.591 384.347 110.405 332.851 121.607 282.258C158.399 251.138 188.343 212.509 208.545 168.654C232.064 117.557 240.267 60.3568 251.921 5.73054C252.425 3.39586 249.823 2.06933 248.231 2.91831L248.257 2.94484ZM70.5061 289.421C64.7456 284.221 59.3568 278.65 54.3662 272.733C42.4471 258.593 32.7844 242.356 26.1479 225.085C13.751 192.903 10.592 156.848 5.09704 122.889C44.8097 175.605 67.878 235.697 81.0448 298.601C77.5673 297.035 73.9305 292.499 70.5326 289.421H70.5061ZM204.191 166.107C185.158 207.442 157.523 243.974 123.545 274.007C128.642 252.172 134.747 230.523 142.047 209.06C166.629 136.526 202.997 70.2262 246.558 7.53461C235.117 60.6752 227.1 116.442 204.218 166.107H204.191Z" fill="#FD9300"/>
</g>
<defs>
<clipPath id="clip0_299_2677">
<rect width="252" height="317" fill="white"/>
</clipPath>
</defs>
</svg>
