<svg width="12" height="12" viewBox="0 0 12 12" fill="none" xmlns="http://www.w3.org/2000/svg">
<g clip-path="url(#clip0_299_3022)">
<path d="M11 0H6.84364C6.56869 0 6.1844 0.159286 5.99013 0.353406L0.291817 6.05169C-0.0972722 6.44034 -0.0972722 7.07755 0.291817 7.46573L4.53468 11.7084C4.92289 12.0971 5.55947 12.0971 5.94827 11.708L11.6466 6.01059C11.8407 5.8165 12 5.4316 12 5.15724V1.00004C12 0.450143 11.5498 0 11 0ZM8.99984 4.00002C8.44754 4.00002 7.9998 3.55181 7.9998 2.99998C7.9998 2.44724 8.44754 1.99994 8.99984 1.99994C9.55214 1.99994 10 2.44724 10 2.99998C10.0001 3.55181 9.55214 4.00002 8.99984 4.00002Z" fill="white"/>
</g>
<defs>
<clipPath id="clip0_299_3022">
<rect width="12" height="12" fill="white"/>
</clipPath>
</defs>
</svg>
