<svg width="186" height="170" viewBox="0 0 186 170" fill="none" xmlns="http://www.w3.org/2000/svg">
<g clip-path="url(#clip0_475_289)">
<g opacity="0.2" clip-path="url(#clip1_475_289)">
<path d="M57.1503 15.0499C73.0055 5.1225 71.1923 -15.4772 60.3142 -28.3513C59.619 -29.1457 58.4988 -28.1133 59.0948 -27.2841C69.1246 -13.5117 69.6764 13.2061 47.2028 14.9487C33.8859 15.9778 25.166 3.96879 17.5381 -5.07305C15.9838 -6.90826 13.3633 -4.53687 14.7614 -2.64292C24.1361 10.1439 40.643 25.418 57.1632 15.0646L57.1503 15.0499Z" fill="white"/>
<path d="M78.1175 29.4333C100.165 6.21509 87.3427 -27.3782 69.5485 -48.5402C68.2775 -50.0517 66.1418 -48.1046 67.2713 -46.5472C82.1613 -26.2728 95.7955 5.07672 74.7007 26.4483C51.9589 49.4952 22.4306 27.8212 1.82862 13.9748C-0.359368 12.5123 -2.29933 15.691 -0.370343 17.3022C20.0982 34.4349 55.2092 53.5351 78.1175 29.4333Z" fill="white"/>
<path d="M-14.4007 41.1429C-3.21942 49.2052 8.87797 56.1799 22.0262 60.4424C42.3304 67.0413 66.075 66.8103 84.5255 55.1052C128.838 27.0012 115.09 -34.775 91.8863 -71.7524C91.2717 -72.7214 89.7047 -72.0514 90.2275 -70.9501C107.556 -34.52 125.154 17.9891 86.5104 48.3019C69.8821 61.348 47.0207 62.8845 27.197 57.3979C4.68049 51.1763 -11.1686 35.7942 -30.7174 24.6632C-28.3549 25.9989 -26.042 22.6238 -28.3642 21.0969C-28.7099 20.8798 -29.028 20.6646 -29.3736 20.4475C-30.1973 19.9214 -31.2557 20.0164 -32.0014 20.617C-32.3687 20.9384 -32.7341 21.2323 -33.1143 21.539C-33.6579 22.0148 -34.0357 22.917 -33.8331 23.6229C-31.6551 31.1214 -20.4133 36.7926 -14.4264 41.1134L-14.4007 41.1429Z" fill="white"/>
<path d="M33.2072 96.2501C60.2607 99.7999 87.7014 88.4363 107.113 69.9145C152.129 26.9322 142.897 -43.7062 106.97 -89.2927C105.921 -90.6093 104.037 -88.9084 105.016 -87.5826C138.397 -42.2365 147.893 26.3012 103.048 67.7305C84.5488 84.8044 58.8862 95.2354 33.5107 91.8538C1.53345 87.5991 -25.8105 62.6105 -49.7818 42.9578C-51.5545 41.4956 -54.1433 44.4367 -52.4624 46.0313C-29.6585 67.4331 1.19877 92.0487 33.2219 96.2373L33.2072 96.2501Z" fill="white"/>
<path d="M30.1798 118.462C65.9363 123.982 98.5436 109.006 122.522 82.7468C170.553 30.1368 171.078 -50.9635 123.821 -104.249C122.752 -105.47 120.901 -103.85 121.926 -102.59C166.522 -48.6392 166.14 31.3492 116.918 82.2731C91.5123 108.561 58.0428 120.862 22.0249 112.376C-12.1255 104.334 -40.1052 81.8499 -66.2268 59.5326C-68.3894 57.6842 -70.8067 61.3846 -68.6571 63.2183C-39.8083 87.8512 -8.37213 112.506 30.1798 118.462Z" fill="white"/>
<path d="M78.451 154.676C144.117 129.004 184.057 49.3912 181.779 -18.3704C180.533 -55.5744 168.132 -91.5624 145.653 -121.25C144.76 -122.417 143.168 -120.946 143.963 -119.771C193.765 -47.9557 186.839 48.9829 127.897 113.376C97.5824 146.505 57.6614 164.271 12.7266 155.172C-31.2121 146.291 -66.0212 115.885 -92.4246 81.0328C-94.1446 78.771 -97.4373 81.6787 -95.7448 83.9386C-56.1205 136.24 10.8796 181.105 78.4363 154.688L78.451 154.676Z" fill="white"/>
</g>
</g>
<defs>
<clipPath id="clip0_475_289">
<rect width="186" height="170" fill="white" transform="translate(0 -0.5)"/>
</clipPath>
<clipPath id="clip1_475_289">
<rect width="427.196" height="214.635" fill="white" transform="translate(283.822 0.0141602) rotate(138.808)"/>
</clipPath>
</defs>
</svg>
