<svg width="234" height="147" viewBox="0 0 234 147" fill="none" xmlns="http://www.w3.org/2000/svg">
<g clip-path="url(#clip0_475_290)">
<g opacity="0.2" clip-path="url(#clip1_475_290)">
<path d="M3.47059 40.9014C3.59433 40.7115 3.77998 40.5713 4.04696 40.6355C73.8891 57.6305 141.363 92.6914 198.143 139.421C179.401 106.831 151.321 80.3702 117.963 62.8434C82.2098 44.1053 44.2952 38.3018 4.25939 39.7265C3.10644 39.7754 2.89688 38.1463 4.04588 37.9313C84.1904 23.9167 169 75.3846 205.311 144.929C205.431 145.152 205.47 145.364 205.466 145.584C223.188 160.734 239.82 177.044 255.047 194.294C245.423 178.999 236.556 163.132 228.742 146.76C228.742 146.76 228.742 146.76 228.731 146.745C182.115 113.356 166.506 50.6508 194.521 -0.101949C195.116 -1.17924 196.896 -0.493791 196.32 0.641344C185.546 22.177 180.847 46.4217 184.377 70.2767C186.414 83.9797 191.151 97.0458 198.151 108.96C201.561 114.766 205.398 120.3 209.834 125.406C213.414 129.539 220.285 138.869 225.78 140.519C225.792 140.534 225.834 140.526 225.846 140.541C205.713 96.4894 193.677 49.1046 196.537 0.381297C196.544 0.134013 196.726 0.0209665 196.943 -0.0459191C197.701 -0.8112 199.291 -0.924374 199.949 0.366134C212.711 24.838 228.591 49.5165 234.885 76.6475C239.982 98.62 238.784 121.261 232.262 142.8C245.985 171.281 262.798 198.515 280.865 224.611C281.345 225.311 281.326 226.026 281.064 226.611C281.97 228.391 279.421 230.194 278.046 228.501C254.151 198.931 228.222 171.619 199.547 147.201C164.482 145.334 130.121 136.099 99.1511 119.548C63.0767 100.256 33.2582 70.6868 2.55492 44.1285C1.23901 42.9962 2.17454 41.0825 3.47444 40.8744L3.47059 40.9014ZM232.465 128.88C233.546 123.33 234.248 117.729 234.567 112.102C235.324 98.6576 233.848 84.9901 230.156 72.0534C223.294 47.935 209.353 25.6332 197.691 3.51952C197.621 51.5628 210.48 96.5632 230.341 138.84C231.682 136.402 231.816 132.171 232.449 128.892L232.465 128.88ZM100.574 116.156C129.76 131.759 161.857 140.794 194.806 143.268C182.278 132.845 169.243 122.974 155.594 113.736C109.517 82.477 59.3 60.0182 6.46983 42.8163C36.399 68.6063 65.4821 97.426 100.558 116.168L100.574 116.156Z" fill="white"/>
</g>
</g>
<defs>
<clipPath id="clip0_475_290">
<rect width="234" height="147" fill="white"/>
</clipPath>
<clipPath id="clip1_475_290">
<rect width="184" height="319" fill="white" transform="matrix(-0.798203 0.602389 0.602389 0.798203 146.869 -70)"/>
</clipPath>
</defs>
</svg>
