<svg width="70" height="70" viewBox="0 0 70 70" fill="none" xmlns="http://www.w3.org/2000/svg">
<rect width="70" height="70" rx="18" fill="#F6F6F6"/>
<circle cx="50" cy="20.3301" r="8" fill="#FD9300"/>
<g clip-path="url(#clip0_475_77)">
<path d="M29.9004 24.1692C29.1044 27.6565 26.7638 30.5916 23.541 32.1436C25.7712 34.9402 26.6066 38.6001 25.8106 42.0874C29.3876 42.0874 32.7699 43.7163 35.0001 46.5129C37.2303 43.7163 40.6126 42.0874 44.1896 42.0874C43.3937 38.6001 44.229 34.9402 46.4592 32.1436C43.2364 30.5916 40.8958 27.6566 40.0999 24.1693C36.8772 25.7212 33.1231 25.7212 29.9004 24.1692Z" stroke="#00A4B2" stroke-width="2" stroke-miterlimit="10" stroke-linecap="round" stroke-linejoin="round"/>
<path d="M35 46.8143V50.5176" stroke="#00A4B2" stroke-width="2" stroke-miterlimit="10" stroke-linecap="round" stroke-linejoin="round"/>
<path d="M32.708 56.1601V56.0285C32.708 54.0903 33.5435 52.2462 35.0006 50.9681C36.4577 52.2462 37.2932 54.0903 37.2932 56.0285V56.1601" stroke="#00A4B2" stroke-width="2" stroke-miterlimit="10" stroke-linecap="round" stroke-linejoin="round"/>
<path d="M44.0674 41.9626L46.4986 44.7562" stroke="#00A4B2" stroke-width="2" stroke-miterlimit="10" stroke-linecap="round" stroke-linejoin="round"/>
<path d="M48.4734 50.5177L48.387 50.4184C47.1146 48.9563 46.5342 47.0167 46.7944 45.0961C48.7326 45.1036 50.5734 45.9463 51.8458 47.4084L51.9322 47.5077" stroke="#00A4B2" stroke-width="2" stroke-miterlimit="10" stroke-linecap="round" stroke-linejoin="round"/>
<path d="M25.9331 41.9626L23.502 44.7562" stroke="#00A4B2" stroke-width="2" stroke-miterlimit="10" stroke-linecap="round" stroke-linejoin="round"/>
<path d="M21.5272 50.5177L21.6136 50.4184C22.886 48.9563 23.4664 47.0167 23.2062 45.0961C21.268 45.1036 19.4271 45.9463 18.1548 47.4084L18.0684 47.5077" stroke="#00A4B2" stroke-width="2" stroke-miterlimit="10" stroke-linecap="round" stroke-linejoin="round"/>
<path d="M29.9732 24.325L28.4971 20.9286" stroke="#00A4B2" stroke-width="2" stroke-miterlimit="10" stroke-linecap="round" stroke-linejoin="round"/>
<path d="M28.3506 14.8398L28.4031 14.9606C29.1757 16.7382 29.1445 18.7625 28.3176 20.5155C26.4718 19.9242 24.9705 18.5658 24.198 16.7883L24.1455 16.6675" stroke="#00A4B2" stroke-width="2" stroke-miterlimit="10" stroke-linecap="round" stroke-linejoin="round"/>
<path d="M40.0273 24.325L41.5035 20.9286" stroke="#00A4B2" stroke-width="2" stroke-miterlimit="10" stroke-linecap="round" stroke-linejoin="round"/>
<path d="M41.6504 14.8398L41.5979 14.9606C40.8253 16.7382 40.8565 18.7625 41.6834 20.5155C43.5292 19.9242 45.0305 18.5658 45.803 16.7883L45.8555 16.6675" stroke="#00A4B2" stroke-width="2" stroke-miterlimit="10" stroke-linecap="round" stroke-linejoin="round"/>
<path d="M23.6996 32.1577L20.5312 30.2404" stroke="#00A4B2" stroke-width="2" stroke-miterlimit="10" stroke-linecap="round" stroke-linejoin="round"/>
<path d="M16.8905 25.3575L17.0031 25.4257C18.6613 26.4293 19.8065 28.0988 20.1456 30.0072C18.2977 30.592 16.2874 30.352 14.6292 29.3485L14.5166 29.2803" stroke="#00A4B2" stroke-width="2" stroke-miterlimit="10" stroke-linecap="round" stroke-linejoin="round"/>
<path d="M46.3018 32.1577L49.4701 30.2404" stroke="#00A4B2" stroke-width="2" stroke-miterlimit="10" stroke-linecap="round" stroke-linejoin="round"/>
<path d="M53.1105 25.3575L52.9979 25.4257C51.3397 26.4293 50.1945 28.0988 49.8555 30.0072C51.7033 30.592 53.7136 30.352 55.3718 29.3485L55.4844 29.2803" stroke="#00A4B2" stroke-width="2" stroke-miterlimit="10" stroke-linecap="round" stroke-linejoin="round"/>
<path d="M39.748 38.2304C38.6709 39.6803 36.9453 40.6198 35.0003 40.6198C31.7361 40.6198 29.0898 37.9736 29.0898 34.7093C29.0898 31.445 31.736 28.7988 35.0003 28.7988C36.9459 28.7988 38.672 29.7389 39.749 31.1896" stroke="#00A4B2" stroke-width="2" stroke-miterlimit="10" stroke-linecap="round" stroke-linejoin="round"/>
<path d="M35.0005 36.7215C36.1118 36.7215 37.0126 35.8206 37.0126 34.7093C37.0126 33.598 36.1118 32.6971 35.0005 32.6971C33.8892 32.6971 32.9883 33.598 32.9883 34.7093C32.9883 35.8206 33.8892 36.7215 35.0005 36.7215Z" stroke="#00A4B2" stroke-width="2" stroke-miterlimit="10" stroke-linecap="round" stroke-linejoin="round"/>
<circle cx="40.9111" cy="34.7092" r="0.839844" fill="#00A4B2"/>
</g>
<defs>
<clipPath id="clip0_475_77">
<rect width="43" height="43" fill="white" transform="translate(13.5 14)"/>
</clipPath>
</defs>
</svg>
