<svg width="70" height="70" viewBox="0 0 70 70" fill="none" xmlns="http://www.w3.org/2000/svg">
<rect width="70" height="70" rx="18" fill="#F6F6F6"/>
<circle cx="50" cy="20.3301" r="8" fill="#FD9300"/>
<g clip-path="url(#clip0_475_37)">
<mask id="mask0_475_37" style="mask-type:luminance" maskUnits="userSpaceOnUse" x="6" y="6" width="58" height="57">
<path d="M27.4961 6.4965L63.0031 26.9965L42.5031 62.5035L6.99609 42.0035L27.4961 6.4965Z" fill="white"/>
</mask>
<g mask="url(#mask0_475_37)">
<path d="M45.2338 26.3836L48.8138 20.1828L40.4918 15.3781L36.9118 21.579C36.1953 22.8199 34.9407 23.6341 33.5241 23.8499C31.8701 24.102 30.365 25.2112 29.7157 26.9882C29.047 28.8183 29.577 30.8918 31.038 32.1812C32.4453 33.4233 34.2432 33.6565 35.7919 33.128C36.1086 34.7335 37.2095 36.1739 38.9889 36.7716C40.836 37.3922 42.8966 36.8145 44.1473 35.3202C45.3616 33.8694 45.5696 32.0114 44.9609 30.4529C44.4395 29.1182 44.5173 27.6246 45.2338 26.3836Z" stroke="#00A4B2" stroke-width="2" stroke-miterlimit="10" stroke-linecap="round" stroke-linejoin="round"/>
<path d="M41.437 36.9136C41.8607 38.1748 41.7614 39.605 41.0439 40.8477C40.2883 42.1564 39.01 42.9752 37.6249 43.1926C36.189 43.4179 34.9194 44.2486 34.1926 45.5074L29.515 53.6094L21.193 48.8047L25.8707 40.7027C26.5974 39.4439 26.6821 37.9291 26.1592 36.5728C25.6549 35.2647 25.7249 33.7482 26.4805 32.4395C27.198 31.1967 28.3868 30.3957 29.6909 30.1321" stroke="#00A4B2" stroke-width="2" stroke-miterlimit="10" stroke-linecap="round" stroke-linejoin="round"/>
</g>
</g>
<defs>
<clipPath id="clip0_475_37">
<rect width="41" height="41" fill="white" transform="translate(27.4961 6.49646) rotate(30)"/>
</clipPath>
</defs>
</svg>
